<svg width="35" height="35" viewBox="0 0 20 20" fill="none" xmlns="http://www.w3.org/2000/svg">
<path d="M19.1875 3.6875V13.3125C19.1875 13.8595 18.9702 14.3841 18.5834 14.7709C18.1966 15.1577 17.672 15.375 17.125 15.375H3.375C2.82799 15.375 2.30339 15.1577 1.91659 14.7709C1.5298 14.3841 1.3125 13.8595 1.3125 13.3125V3.6875M19.1875 3.6875C19.1875 3.14049 18.9702 2.61589 18.5834 2.22909C18.1966 1.8423 17.672 1.625 17.125 1.625H3.375C2.82799 1.625 2.30339 1.8423 1.91659 2.22909C1.5298 2.61589 1.3125 3.14049 1.3125 3.6875M19.1875 3.6875V3.91025C19.1875 4.26238 19.0974 4.60866 18.9257 4.9161C18.754 5.22355 18.5065 5.48191 18.2067 5.66658L11.3317 9.897C11.0064 10.0973 10.632 10.2034 10.25 10.2034C9.86803 10.2034 9.49356 10.0973 9.16833 9.897L2.29333 5.6675C1.99351 5.48283 1.74596 5.22446 1.57427 4.91702C1.40258 4.60958 1.31246 4.2633 1.3125 3.91117V3.6875" stroke="#3A5A40" stroke-width="1.5" stroke-linecap="round" stroke-linejoin="round"/>
</svg>
