<svg width="126" height="125" viewBox="0 0 126 125" fill="none" xmlns="http://www.w3.org/2000/svg">
<path d="M125.234 84.7762L111.488 60.8942H114.861C115.573 60.8942 116.232 60.5145 116.589 59.898C116.944 59.2815 116.946 58.5218 116.591 57.9044L102.843 34.0224H106.218C106.93 34.0224 107.589 33.6427 107.944 33.0262C108.301 32.4097 108.301 31.65 107.946 31.0325L90.6605 0.999512C90.3034 0.381103 89.6445 0 88.9308 0C88.2171 0 87.558 0.381103 87.202 0.999512L69.9149 31.0325C69.5598 31.6496 69.5604 32.4097 69.9169 33.0262C70.2737 33.6429 70.9316 34.0224 71.6437 34.0224H75.0179L73.7943 36.1482C73.2447 37.103 73.5731 38.3224 74.5278 38.872C75.4824 39.4214 76.702 39.0931 77.2516 38.1387L80.1963 33.023C80.5514 32.4058 80.5506 31.6458 80.1943 31.0294C79.8377 30.4129 79.1796 30.0329 78.4675 30.0329H75.0931L88.9306 5.99317L102.768 30.0329H99.3946C98.6823 30.0329 98.0236 30.4129 97.6665 31.0294C97.3113 31.6458 97.3093 32.4056 97.6645 33.023L111.412 56.905H108.037C107.325 56.905 106.666 57.2849 106.311 57.9014C105.954 58.5179 105.954 59.2776 106.309 59.895L120.055 83.7766H96.9085C95.8073 83.7766 94.9145 84.6696 94.9145 85.7712C94.9145 86.8728 95.8073 87.7659 96.9085 87.7659H123.506C124.218 87.7659 124.875 87.3859 125.232 86.7694C125.589 86.1532 125.589 85.3932 125.234 84.7762Z" fill="black"/>
<path d="M123.506 99.7341H90.9244V66.651L92.8391 68.5651C93.228 68.9543 93.7399 69.1492 94.2498 69.1492C94.7597 69.1492 95.2716 68.9545 95.6605 68.5651C96.4403 67.7859 96.4403 66.523 95.6605 65.7442L49.7827 19.8665C49.0037 19.0874 47.7408 19.0874 46.9618 19.8665L34.3654 32.4629V21.2764C34.3654 20.1748 33.4724 19.2818 32.3708 19.2818H23.0623C21.9607 19.2818 21.0677 20.1748 21.0677 21.2764V45.7605L1.08437 65.7438C0.305209 66.523 0.305209 67.7859 1.08437 68.5647C1.86334 69.3438 3.12624 69.3438 3.90521 68.5647L5.81929 66.651V99.7341H2.49469C1.3931 99.7341 0.500053 100.627 0.500053 101.729C0.500053 102.83 1.3931 103.723 2.49469 103.723H123.506C124.607 103.723 125.5 102.83 125.5 101.729C125.5 100.627 124.607 99.7341 123.506 99.7341ZM25.0569 23.2712H30.376V36.4522L25.0569 41.7712V23.2712ZM24.471 47.999C24.4742 47.9958 48.3724 24.0976 48.3724 24.0976L84.1153 59.8407H12.6298L24.471 47.999ZM33.7446 99.7341H9.80876V95.7448H33.7448L33.7446 99.7341ZM33.7446 91.7553H9.80876V87.7661H33.7448L33.7446 91.7553ZM33.7446 75.7978H25.7659C24.6643 75.7978 23.7712 76.6909 23.7712 77.7924C23.7712 78.894 24.6643 79.7871 25.7659 79.7871H33.7446V83.7764H9.80876V79.7871H17.7875C18.8889 79.7871 19.782 78.894 19.782 77.7924C19.782 76.6909 18.8889 75.7978 17.7875 75.7978H9.80876V71.8087H33.7448L33.7446 75.7978ZM33.7446 67.819H9.80876V63.8299H33.7448L33.7446 67.819ZM59.0106 85.7686C59.0106 85.774 59.0106 93.7474 59.0106 93.7474C59.0106 93.7528 59.0106 99.7341 59.0106 99.7341H37.7341V77.7954C37.7341 77.7901 37.7341 69.8166 37.7341 69.8166C37.7341 69.8113 37.7341 63.8299 37.7341 63.8299H59.0106V85.7686ZM86.9362 91.7553H78.9574C77.8558 91.7553 76.9628 92.6484 76.9628 93.75C76.9628 94.8516 77.8558 95.7446 78.9574 95.7446H86.9362V99.7339H62.9999V95.7446H70.9787C72.0802 95.7446 72.9733 94.8516 72.9733 93.75C72.9733 92.6484 72.0802 91.7553 70.9787 91.7553H62.9999V87.7661H86.9362V91.7553ZM86.9362 83.7766H62.9999V79.7873H86.9362V83.7766ZM86.9362 75.7978H62.9999V71.8087H86.9362V75.7978ZM86.9362 67.819H62.9999V63.8299H86.9362V67.819Z" fill="black"/>
<path d="M10.4732 107.713C9.37157 107.713 8.47852 108.606 8.47852 109.708V112.367C8.47852 113.469 9.37157 114.362 10.4732 114.362C11.5747 114.362 12.4678 113.469 12.4678 112.367V109.708C12.4678 108.606 11.5747 107.713 10.4732 107.713Z" fill="black"/>
<path d="M18.4523 118.351C17.3507 118.351 16.4576 119.244 16.4576 120.346V123.005C16.4576 124.107 17.3507 125 18.4523 125C19.5539 125 20.4469 124.107 20.4469 123.005V120.346C20.4469 119.244 19.5539 118.351 18.4523 118.351Z" fill="black"/>
<path d="M26.4302 113.032C25.3286 113.032 24.4355 113.925 24.4355 115.027V117.687C24.4355 118.788 25.3286 119.681 26.4302 119.681C27.5318 119.681 28.4248 118.788 28.4248 117.687V115.027C28.4248 113.925 27.5318 113.032 26.4302 113.032Z" fill="black"/>
<path d="M115.526 107.713C114.424 107.713 113.532 108.606 113.532 109.708V112.367C113.532 113.469 114.424 114.362 115.526 114.362C116.629 114.362 117.522 113.469 117.522 112.367V109.708C117.522 108.606 116.629 107.713 115.526 107.713Z" fill="black"/>
<path d="M78.293 118.351C77.1916 118.351 76.2983 119.244 76.2983 120.346V123.005C76.2983 124.107 77.1916 125 78.293 125C79.3946 125 80.2876 124.107 80.2876 123.005V120.346C80.288 119.244 79.3946 118.351 78.293 118.351Z" fill="black"/>
<path d="M86.2709 113.032C85.1693 113.032 84.2762 113.925 84.2762 115.027V117.687C84.2762 118.788 85.1693 119.681 86.2709 119.681C87.3725 119.681 88.2655 118.788 88.2655 117.687V115.027C88.2655 113.925 87.3725 113.032 86.2709 113.032Z" fill="black"/>
<path d="M49.037 113.032C47.9354 113.032 47.0424 113.925 47.0424 115.027V117.687C47.0424 118.788 47.9354 119.681 49.037 119.681C50.1386 119.681 51.0316 118.788 51.0316 117.687V115.027C51.0316 113.925 50.1386 113.032 49.037 113.032Z" fill="black"/>
</svg>
