<svg width="35" height="35" viewBox="0 0 20 20" fill="none" xmlns="http://www.w3.org/2000/svg">
<path d="M9.43749 13.1667C10.41 13.1667 11.3426 12.7804 12.0302 12.0927C12.7179 11.4051 13.1042 10.4725 13.1042 9.49999C13.1042 8.52753 12.7179 7.5949 12.0302 6.90727C11.3426 6.21964 10.41 5.83333 9.43749 5.83333C8.46503 5.83333 7.5324 6.21964 6.84477 6.90727C6.15714 7.5949 5.77083 8.52753 5.77083 9.49999C5.77083 10.4725 6.15714 11.4051 6.84477 12.0927C7.5324 12.7804 8.46503 13.1667 9.43749 13.1667Z" stroke="#3A5A40" stroke-width="1.5" stroke-linecap="round" stroke-linejoin="round"/>
<path d="M1.1875 13.1667V5.83333C1.1875 4.61776 1.67039 3.45197 2.52993 2.59243C3.38947 1.73289 4.55526 1.25 5.77083 1.25H13.1042C14.3197 1.25 15.4855 1.73289 16.3451 2.59243C17.2046 3.45197 17.6875 4.61776 17.6875 5.83333V13.1667C17.6875 14.3822 17.2046 15.548 16.3451 16.4076C15.4855 17.2671 14.3197 17.75 13.1042 17.75H5.77083C4.55526 17.75 3.38947 17.2671 2.52993 16.4076C1.67039 15.548 1.1875 14.3822 1.1875 13.1667Z" stroke="#3A5A40" stroke-width="1.25"/>
<path d="M14.4792 4.46658L14.4875 4.45741" stroke="#3A5A40" stroke-width="1.5" stroke-linecap="round" stroke-linejoin="round"/>
</svg>
