<svg width="289" height="170" viewBox="0 0 289 170" fill="none" xmlns="http://www.w3.org/2000/svg">
<path d="M206.734 84.7762L192.988 60.8942H196.361C197.073 60.8942 197.732 60.5145 198.089 59.898C198.444 59.2815 198.446 58.5218 198.091 57.9044L184.343 34.0224H187.718C188.43 34.0224 189.089 33.6427 189.444 33.0262C189.801 32.4097 189.801 31.65 189.446 31.0325L172.161 0.999512C171.803 0.381103 171.144 0 170.431 0C169.717 0 169.058 0.381103 168.702 0.999512L151.415 31.0325C151.06 31.6496 151.06 32.4097 151.417 33.0262C151.774 33.6429 152.432 34.0224 153.144 34.0224H156.518L155.294 36.1482C154.745 37.103 155.073 38.3224 156.028 38.872C156.982 39.4214 158.202 39.0931 158.752 38.1387L161.696 33.023C162.051 32.4058 162.051 31.6458 161.694 31.0294C161.338 30.4129 160.68 30.0329 159.967 30.0329H156.593L170.431 5.99317L184.268 30.0329H180.895C180.182 30.0329 179.524 30.4129 179.166 31.0294C178.811 31.6458 178.809 32.4056 179.164 33.023L192.912 56.905H189.537C188.825 56.905 188.166 57.2849 187.811 57.9014C187.454 58.5179 187.454 59.2776 187.809 59.895L201.555 83.7766H178.408C177.307 83.7766 176.414 84.6696 176.414 85.7712C176.414 86.8728 177.307 87.7659 178.408 87.7659H205.006C205.718 87.7659 206.375 87.3859 206.732 86.7694C207.089 86.1532 207.089 85.3932 206.734 84.7762Z" fill="#3A5A40"/>
<path d="M205.006 99.7341H172.424V66.651L174.339 68.5651C174.728 68.9543 175.24 69.1492 175.75 69.1492C176.26 69.1492 176.772 68.9545 177.161 68.5651C177.94 67.7859 177.94 66.523 177.161 65.7442L131.283 19.8665C130.504 19.0874 129.241 19.0874 128.462 19.8665L115.865 32.4629V21.2764C115.865 20.1748 114.972 19.2818 113.871 19.2818H104.562C103.461 19.2818 102.568 20.1748 102.568 21.2764V45.7605L82.5844 65.7438C81.8052 66.523 81.8052 67.7859 82.5844 68.5647C83.3633 69.3438 84.6262 69.3438 85.4052 68.5647L87.3193 66.651V99.7341H83.9947C82.8931 99.7341 82.0001 100.627 82.0001 101.729C82.0001 102.83 82.8931 103.723 83.9947 103.723H205.006C206.107 103.723 207 102.83 207 101.729C207 100.627 206.107 99.7341 205.006 99.7341ZM106.557 23.2712H111.876V36.4522L106.557 41.7712V23.2712ZM105.971 47.999C105.974 47.9958 129.872 24.0976 129.872 24.0976L165.615 59.8407H94.1298L105.971 47.999ZM115.245 99.7341H91.3088V95.7448H115.245L115.245 99.7341ZM115.245 91.7553H91.3088V87.7661H115.245L115.245 91.7553ZM115.245 75.7978H107.266C106.164 75.7978 105.271 76.6909 105.271 77.7924C105.271 78.894 106.164 79.7871 107.266 79.7871H115.245V83.7764H91.3088V79.7871H99.2875C100.389 79.7871 101.282 78.894 101.282 77.7924C101.282 76.6909 100.389 75.7978 99.2875 75.7978H91.3088V71.8087H115.245L115.245 75.7978ZM115.245 67.819H91.3088V63.8299H115.245L115.245 67.819ZM140.511 85.7686C140.511 85.774 140.511 93.7474 140.511 93.7474C140.511 93.7528 140.511 99.7341 140.511 99.7341H119.234V77.7954C119.234 77.7901 119.234 69.8166 119.234 69.8166C119.234 69.8113 119.234 63.8299 119.234 63.8299H140.511V85.7686ZM168.436 91.7553H160.457C159.356 91.7553 158.463 92.6484 158.463 93.75C158.463 94.8516 159.356 95.7446 160.457 95.7446H168.436V99.7339H144.5V95.7446H152.479C153.58 95.7446 154.473 94.8516 154.473 93.75C154.473 92.6484 153.58 91.7553 152.479 91.7553H144.5V87.7661H168.436V91.7553ZM168.436 83.7766H144.5V79.7873H168.436V83.7766ZM168.436 75.7978H144.5V71.8087H168.436V75.7978ZM168.436 67.819H144.5V63.8299H168.436V67.819Z" fill="#3A5A40"/>
<path d="M91.9732 107.713C90.8716 107.713 89.9785 108.606 89.9785 109.708V112.367C89.9785 113.469 90.8716 114.362 91.9732 114.362C93.0747 114.362 93.9678 113.469 93.9678 112.367V109.708C93.9678 108.606 93.0747 107.713 91.9732 107.713Z" fill="#3A5A40"/>
<path d="M99.9523 118.351C98.8507 118.351 97.9576 119.244 97.9576 120.346V123.005C97.9576 124.107 98.8507 125 99.9523 125C101.054 125 101.947 124.107 101.947 123.005V120.346C101.947 119.244 101.054 118.351 99.9523 118.351Z" fill="#3A5A40"/>
<path d="M107.93 113.032C106.829 113.032 105.936 113.925 105.936 115.027V117.687C105.936 118.788 106.829 119.681 107.93 119.681C109.032 119.681 109.925 118.788 109.925 117.687V115.027C109.925 113.925 109.032 113.032 107.93 113.032Z" fill="#3A5A40"/>
<path d="M197.026 107.713C195.924 107.713 195.032 108.606 195.032 109.708V112.367C195.032 113.469 195.924 114.362 197.026 114.362C198.129 114.362 199.022 113.469 199.022 112.367V109.708C199.022 108.606 198.129 107.713 197.026 107.713Z" fill="#3A5A40"/>
<path d="M159.793 118.351C158.692 118.351 157.798 119.244 157.798 120.346V123.005C157.798 124.107 158.692 125 159.793 125C160.895 125 161.788 124.107 161.788 123.005V120.346C161.788 119.244 160.895 118.351 159.793 118.351Z" fill="#3A5A40"/>
<path d="M167.771 113.032C166.669 113.032 165.776 113.925 165.776 115.027V117.687C165.776 118.788 166.669 119.681 167.771 119.681C168.872 119.681 169.766 118.788 169.766 117.687V115.027C169.766 113.925 168.872 113.032 167.771 113.032Z" fill="#3A5A40"/>
<path d="M130.537 113.032C129.435 113.032 128.542 113.925 128.542 115.027V117.687C128.542 118.788 129.435 119.681 130.537 119.681C131.639 119.681 132.532 118.788 132.532 117.687V115.027C132.532 113.925 131.639 113.032 130.537 113.032Z" fill="#3A5A40"/>
<path d="M7.38281 140.838V150.928H12.4277C13.1191 150.928 13.7695 150.799 14.3789 150.541C14.9883 150.271 15.5215 149.908 15.9785 149.451C16.4355 148.994 16.793 148.461 17.0508 147.852C17.3203 147.23 17.4551 146.574 17.4551 145.883C17.4551 145.191 17.3203 144.541 17.0508 143.932C16.793 143.311 16.4355 142.771 15.9785 142.314C15.5215 141.857 14.9883 141.5 14.3789 141.242C13.7695 140.973 13.1191 140.838 12.4277 140.838H7.38281ZM7.38281 161H2.33789V135.793H12.4277C13.3535 135.793 14.2441 135.916 15.0996 136.162C15.9551 136.396 16.752 136.736 17.4902 137.182C18.2402 137.615 18.9199 138.143 19.5293 138.764C20.1504 139.373 20.6777 140.053 21.1113 140.803C21.5566 141.553 21.8965 142.355 22.1309 143.211C22.377 144.066 22.5 144.957 22.5 145.883C22.5 147.266 22.2363 148.572 21.709 149.803C21.1816 151.021 20.4609 152.088 19.5469 153.002C18.6328 153.916 17.5605 154.637 16.3301 155.164C15.1113 155.691 13.8105 155.955 12.4277 155.955H7.38281V161ZM27.6356 140.838V150.928H32.6805C33.372 150.928 34.0223 150.799 34.6317 150.541C35.2411 150.271 35.7743 149.908 36.2313 149.451C36.6884 148.994 37.0458 148.461 37.3036 147.852C37.5731 147.23 37.7079 146.574 37.7079 145.883C37.7079 145.191 37.5731 144.541 37.3036 143.932C37.0458 143.311 36.6884 142.771 36.2313 142.314C35.7743 141.857 35.2411 141.5 34.6317 141.242C34.0223 140.973 33.372 140.838 32.6805 140.838H27.6356ZM27.6356 161H22.5907V135.793H32.6805C33.6063 135.793 34.497 135.916 35.3524 136.162C36.2079 136.396 37.0048 136.736 37.743 137.182C38.493 137.615 39.1727 138.143 39.7821 138.764C40.4032 139.373 40.9305 140.053 41.3641 140.803C41.8095 141.553 42.1493 142.355 42.3837 143.211C42.6298 144.066 42.7528 144.957 42.7528 145.883C42.7528 146.75 42.6415 147.594 42.4188 148.414C42.2079 149.234 41.8973 150.014 41.4872 150.752C41.0887 151.49 40.5966 152.17 40.0106 152.791C39.4247 153.412 38.7684 153.951 38.0419 154.408L40.8368 161H35.4755L33.2782 155.92L27.6356 155.955V161ZM58.031 150.928V145.883C58.031 145.191 57.8962 144.541 57.6267 143.932C57.3689 143.311 57.0115 142.771 56.5545 142.314C56.0974 141.857 55.5584 141.5 54.9373 141.242C54.3279 140.973 53.6775 140.838 52.9861 140.838C52.2947 140.838 51.6384 140.973 51.0173 141.242C50.408 141.5 49.8748 141.857 49.4177 142.314C48.9607 142.771 48.5974 143.311 48.3279 143.932C48.0701 144.541 47.9412 145.191 47.9412 145.883V150.928H58.031ZM63.0759 161H58.031V155.955H47.9412V161H42.9138V145.883C42.9138 144.488 43.1775 143.182 43.7048 141.963C44.2322 140.732 44.947 139.66 45.8494 138.746C46.7634 137.832 47.8298 137.111 49.0486 136.584C50.2791 136.057 51.5916 135.793 52.9861 135.793C54.3806 135.793 55.6873 136.057 56.906 136.584C58.1365 137.111 59.2087 137.832 60.1228 138.746C61.0369 139.66 61.7576 140.732 62.2849 141.963C62.8123 143.182 63.0759 144.488 63.0759 145.883V161ZM53.0388 134.316L51.0525 131.697L56.2732 126.828L59.156 130.502L53.0388 134.316ZM84.6998 158.416C83.528 159.424 82.2155 160.197 80.7623 160.736C79.3092 161.275 77.8034 161.545 76.2448 161.545C75.0495 161.545 73.8952 161.387 72.7819 161.07C71.6803 160.766 70.6432 160.332 69.6705 159.77C68.7096 159.195 67.8307 158.51 67.0338 157.713C66.237 156.916 65.5514 156.037 64.9772 155.076C64.4147 154.104 63.9752 153.066 63.6588 151.965C63.3541 150.852 63.2018 149.697 63.2018 148.502C63.2018 147.307 63.3541 146.152 63.6588 145.039C63.9752 143.926 64.4147 142.889 64.9772 141.928C65.5514 140.955 66.237 140.07 67.0338 139.273C67.8307 138.477 68.7096 137.797 69.6705 137.234C70.6432 136.66 71.6803 136.221 72.7819 135.916C73.8952 135.6 75.0495 135.441 76.2448 135.441C77.8034 135.441 79.3092 135.711 80.7623 136.25C82.2155 136.777 83.528 137.551 84.6998 138.57L82.028 142.965C81.2897 142.168 80.4166 141.559 79.4088 141.137C78.401 140.703 77.3463 140.486 76.2448 140.486C75.1315 140.486 74.0885 140.697 73.1159 141.119C72.1432 141.541 71.2936 142.115 70.567 142.842C69.8405 143.557 69.2663 144.406 68.8444 145.391C68.4225 146.363 68.2116 147.4 68.2116 148.502C68.2116 149.604 68.4225 150.641 68.8444 151.613C69.2663 152.574 69.8405 153.418 70.567 154.145C71.2936 154.871 72.1432 155.445 73.1159 155.867C74.0885 156.289 75.1315 156.5 76.2448 156.5C77.3463 156.5 78.401 156.289 79.4088 155.867C80.4166 155.434 81.2897 154.818 82.028 154.021L84.6998 158.416ZM102.035 161H84.7554V135.793H102.035V140.838H89.8003V145.883H98.0796V150.928H89.8003V155.955H102.035V161ZM129.163 135.793L120.884 161H115.839L107.595 135.793H113.325L118.353 152.615L123.398 135.793H129.163ZM140.964 140.838V150.928H146.009C146.7 150.928 147.351 150.799 147.96 150.541C148.569 150.271 149.103 149.908 149.56 149.451C150.017 148.994 150.374 148.461 150.632 147.852C150.901 147.23 151.036 146.574 151.036 145.883C151.036 145.191 150.901 144.541 150.632 143.932C150.374 143.311 150.017 142.771 149.56 142.314C149.103 141.857 148.569 141.5 147.96 141.242C147.351 140.973 146.7 140.838 146.009 140.838H140.964ZM140.964 161H135.919V135.793H146.009C146.935 135.793 147.825 135.916 148.681 136.162C149.536 136.396 150.333 136.736 151.071 137.182C151.821 137.615 152.501 138.143 153.11 138.764C153.731 139.373 154.259 140.053 154.692 140.803C155.138 141.553 155.478 142.355 155.712 143.211C155.958 144.066 156.081 144.957 156.081 145.883C156.081 147.266 155.817 148.572 155.29 149.803C154.763 151.021 154.042 152.088 153.128 153.002C152.214 153.916 151.142 154.637 149.911 155.164C148.692 155.691 147.392 155.955 146.009 155.955H140.964V161ZM180.869 148.502C180.869 149.697 180.711 150.852 180.394 151.965C180.09 153.066 179.656 154.104 179.094 155.076C178.531 156.037 177.851 156.916 177.055 157.713C176.258 158.51 175.379 159.195 174.418 159.77C173.457 160.332 172.42 160.766 171.307 161.07C170.193 161.387 169.039 161.545 167.844 161.545C166.648 161.545 165.494 161.387 164.381 161.07C163.279 160.766 162.242 160.332 161.269 159.77C160.309 159.195 159.43 158.51 158.633 157.713C157.836 156.916 157.15 156.037 156.576 155.076C156.014 154.104 155.574 153.066 155.258 151.965C154.953 150.852 154.801 149.697 154.801 148.502C154.801 147.307 154.953 146.152 155.258 145.039C155.574 143.926 156.014 142.889 156.576 141.928C157.15 140.967 157.836 140.088 158.633 139.291C159.43 138.494 160.309 137.814 161.269 137.252C162.242 136.689 163.279 136.256 164.381 135.951C165.494 135.635 166.648 135.477 167.844 135.477C169.039 135.477 170.193 135.635 171.307 135.951C172.42 136.256 173.457 136.689 174.418 137.252C175.379 137.814 176.258 138.494 177.055 139.291C177.851 140.088 178.531 140.967 179.094 141.928C179.656 142.889 180.09 143.926 180.394 145.039C180.711 146.152 180.869 147.307 180.869 148.502ZM175.859 148.502C175.859 147.4 175.648 146.363 175.226 145.391C174.805 144.406 174.23 143.557 173.504 142.842C172.789 142.115 171.939 141.541 170.955 141.119C169.982 140.697 168.945 140.486 167.844 140.486C166.73 140.486 165.687 140.697 164.715 141.119C163.742 141.541 162.893 142.115 162.166 142.842C161.439 143.557 160.865 144.406 160.443 145.391C160.021 146.363 159.81 147.4 159.81 148.502C159.81 149.604 160.021 150.641 160.443 151.613C160.865 152.574 161.439 153.418 162.166 154.145C162.893 154.871 163.742 155.445 164.715 155.867C165.687 156.289 166.73 156.5 167.844 156.5C168.945 156.5 169.982 156.289 170.955 155.867C171.939 155.445 172.789 154.871 173.504 154.145C174.23 153.418 174.805 152.574 175.226 151.613C175.648 150.641 175.859 149.604 175.859 148.502ZM179.835 143.352C179.835 142.309 180.034 141.33 180.432 140.416C180.831 139.502 181.37 138.705 182.05 138.025C182.741 137.334 183.544 136.789 184.458 136.391C185.372 135.992 186.35 135.793 187.393 135.793H198.96V140.838H187.393C187.042 140.838 186.714 140.902 186.409 141.031C186.104 141.16 185.835 141.342 185.6 141.576C185.378 141.799 185.202 142.062 185.073 142.367C184.944 142.672 184.88 143 184.88 143.352C184.88 143.703 184.944 144.037 185.073 144.354C185.202 144.658 185.378 144.928 185.6 145.162C185.835 145.385 186.104 145.561 186.409 145.689C186.714 145.818 187.042 145.883 187.393 145.883H192.438C193.481 145.883 194.46 146.082 195.374 146.48C196.3 146.867 197.102 147.406 197.782 148.098C198.473 148.777 199.012 149.58 199.399 150.506C199.798 151.42 199.997 152.398 199.997 153.441C199.997 154.484 199.798 155.463 199.399 156.377C199.012 157.291 198.473 158.094 197.782 158.785C197.102 159.465 196.3 160.004 195.374 160.402C194.46 160.801 193.481 161 192.438 161H181.241V155.955H192.438C192.79 155.955 193.118 155.891 193.423 155.762C193.727 155.633 193.991 155.457 194.214 155.234C194.448 155 194.63 154.73 194.759 154.426C194.887 154.121 194.952 153.793 194.952 153.441C194.952 153.09 194.887 152.762 194.759 152.457C194.63 152.152 194.448 151.889 194.214 151.666C193.991 151.432 193.727 151.25 193.423 151.121C193.118 150.992 192.79 150.928 192.438 150.928H187.393C186.35 150.928 185.372 150.729 184.458 150.33C183.544 149.932 182.741 149.393 182.05 148.713C181.37 148.021 180.831 147.219 180.432 146.305C180.034 145.379 179.835 144.395 179.835 143.352ZM215.275 150.928V145.883C215.275 145.191 215.14 144.541 214.871 143.932C214.613 143.311 214.256 142.771 213.799 142.314C213.341 141.857 212.802 141.5 212.181 141.242C211.572 140.973 210.922 140.838 210.23 140.838C209.539 140.838 208.882 140.973 208.261 141.242C207.652 141.5 207.119 141.857 206.662 142.314C206.205 142.771 205.841 143.311 205.572 143.932C205.314 144.541 205.185 145.191 205.185 145.883V150.928H215.275ZM220.32 161H215.275V155.955H205.185V161H200.158V145.883C200.158 144.488 200.422 143.182 200.949 141.963C201.476 140.732 202.191 139.66 203.093 138.746C204.007 137.832 205.074 137.111 206.293 136.584C207.523 136.057 208.836 135.793 210.23 135.793C211.625 135.793 212.931 136.057 214.15 136.584C215.381 137.111 216.453 137.832 217.367 138.746C218.281 139.66 219.002 140.732 219.529 141.963C220.056 143.182 220.32 144.488 220.32 145.883V161ZM210.283 134.316L208.297 131.697L213.517 126.828L216.4 130.502L210.283 134.316ZM239.817 161H220.305L231.063 140.838H220.305V135.793H239.817L229.094 155.955H239.817V161ZM254.902 150.928V145.883C254.902 145.191 254.767 144.541 254.497 143.932C254.24 143.311 253.882 142.771 253.425 142.314C252.968 141.857 252.429 141.5 251.808 141.242C251.199 140.973 250.548 140.838 249.857 140.838C249.165 140.838 248.509 140.973 247.888 141.242C247.279 141.5 246.746 141.857 246.289 142.314C245.831 142.771 245.468 143.311 245.199 143.932C244.941 144.541 244.812 145.191 244.812 145.883V150.928H254.902ZM259.947 161H254.902V155.955H244.812V161H239.785V145.883C239.785 144.488 240.048 143.182 240.576 141.963C241.103 140.732 241.818 139.66 242.72 138.746C243.634 137.832 244.701 137.111 245.919 136.584C247.15 136.057 248.462 135.793 249.857 135.793C251.251 135.793 252.558 136.057 253.777 136.584C255.007 137.111 256.08 137.832 256.994 138.746C257.908 139.66 258.628 140.732 259.156 141.963C259.683 143.182 259.947 144.488 259.947 145.883V161ZM280.147 135.793L271.867 161H266.823L258.578 135.793H264.309L269.336 152.615L274.381 135.793H280.147ZM284.737 161H279.693V135.793H284.737V161ZM282.224 134.316L280.237 131.697L285.458 126.828L288.341 130.502L282.224 134.316Z" fill="#3A5A40"/>
</svg>
