<svg width="35" height="35" viewBox="0 0 20 20" fill="none" xmlns="http://www.w3.org/2000/svg">
<path d="M16.6099 11.6177L12.5614 9.80351L12.5502 9.79835C12.3401 9.70846 12.1108 9.67238 11.8832 9.69339C11.6555 9.7144 11.4367 9.79182 11.2466 9.91867C11.2242 9.93346 11.2027 9.94952 11.1821 9.96679L9.0904 11.75C7.76524 11.1063 6.39712 9.74851 5.75345 8.44054L7.53923 6.31703C7.55641 6.29554 7.57274 6.27406 7.58821 6.25085C7.71233 6.06119 7.78763 5.84379 7.80743 5.61799C7.82722 5.39219 7.79088 5.165 7.70165 4.95663V4.94632L5.88235 0.890931C5.76439 0.618737 5.56157 0.391991 5.30415 0.244543C5.04674 0.097094 4.74854 0.036851 4.45407 0.0728064C3.28959 0.226039 2.22071 0.79792 1.44706 1.68164C0.673411 2.56536 0.247902 3.70048 0.250008 4.87499C0.250008 11.6984 5.80157 17.25 12.625 17.25C13.7995 17.2521 14.9346 16.8266 15.8184 16.0529C16.7021 15.2793 17.274 14.2104 17.4272 13.0459C17.4632 12.7516 17.4031 12.4534 17.2558 12.196C17.1085 11.9386 16.882 11.7357 16.6099 11.6177ZM12.625 15.875C9.7086 15.8718 6.91256 14.7119 4.85035 12.6497C2.78814 10.5874 1.62819 7.7914 1.62501 4.87499C1.62177 4.0358 1.92411 3.22413 2.47556 2.59155C3.02701 1.95898 3.78986 1.54875 4.62165 1.43749C4.62131 1.44092 4.62131 1.44438 4.62165 1.44781L6.42634 5.48687L4.65001 7.61296C4.63198 7.63371 4.6156 7.65583 4.60102 7.67913C4.4717 7.87758 4.39583 8.10607 4.38078 8.34245C4.36572 8.57884 4.41199 8.8151 4.51509 9.02835C5.29368 10.6208 6.89813 12.2132 8.50774 12.9909C8.72256 13.0931 8.96019 13.1377 9.19743 13.1206C9.43467 13.1034 9.66339 13.025 9.86126 12.893C9.88332 12.8781 9.90455 12.862 9.92485 12.8448L12.014 11.0625L16.0531 12.8715H16.0625C15.9526 13.7044 15.543 14.4688 14.9103 15.0216C14.2776 15.5745 13.4652 15.8778 12.625 15.875Z" fill="#3A5A40"/>
</svg>
